<?xml version="1.0" encoding="UTF-8" standalone="no"?>
<svg
   width="64pt"
   height="64pt"
   viewBox="0 0 22.577778 22.577778"
   version="1.1"
   id="svg831"
   inkscape:version="1.1.1 (1:1.1+202109281949+c3084ef5ed)"
   sodipodi:docname="06 - Green Tea.svg"
   inkscape:export-filename="/media/taufikramadhan/Data/Tr Design Studio/Project Design/TR Creative Design/Icon Design/Project Hiring/Icon Icons/013 - Drinks And Restaurants/Send/2 - Solid/06 - Green Tea.png"
   inkscape:export-xdpi="576"
   inkscape:export-ydpi="576"
   xmlns:inkscape="http://www.inkscape.org/namespaces/inkscape"
   xmlns:sodipodi="http://sodipodi.sourceforge.net/DTD/sodipodi-0.dtd"
   xmlns="http://www.w3.org/2000/svg"
   xmlns:svg="http://www.w3.org/2000/svg"
   xmlns:rdf="http://www.w3.org/1999/02/22-rdf-syntax-ns#"
   xmlns:cc="http://creativecommons.org/ns#"
   xmlns:dc="http://purl.org/dc/elements/1.1/">
  <defs
     id="defs825">
    <pattern
       id="EMFhbasepattern"
       patternUnits="userSpaceOnUse"
       width="6"
       height="6"
       x="0"
       y="0" />
    <pattern
       id="EMFhbasepattern-9"
       patternUnits="userSpaceOnUse"
       width="6"
       height="6"
       x="0"
       y="0" />
    <pattern
       id="EMFhbasepattern-0"
       patternUnits="userSpaceOnUse"
       width="6"
       height="6"
       x="0"
       y="0" />
    <pattern
       id="EMFhbasepattern-7"
       patternUnits="userSpaceOnUse"
       width="6"
       height="6"
       x="0"
       y="0" />
    <pattern
       id="EMFhbasepattern-2"
       patternUnits="userSpaceOnUse"
       width="6"
       height="6"
       x="0"
       y="0" />
    <pattern
       id="EMFhbasepattern-98"
       patternUnits="userSpaceOnUse"
       width="6"
       height="6"
       x="0"
       y="0" />
    <pattern
       id="EMFhbasepattern-6"
       patternUnits="userSpaceOnUse"
       width="6"
       height="6"
       x="0"
       y="0" />
    <pattern
       id="EMFhbasepattern-01"
       patternUnits="userSpaceOnUse"
       width="6"
       height="6"
       x="0"
       y="0" />
    <pattern
       id="EMFhbasepattern-07"
       patternUnits="userSpaceOnUse"
       width="6"
       height="6"
       x="0"
       y="0" />
    <pattern
       id="EMFhbasepattern-8"
       patternUnits="userSpaceOnUse"
       width="6"
       height="6"
       x="0"
       y="0" />
    <pattern
       id="EMFhbasepattern-4"
       patternUnits="userSpaceOnUse"
       width="6"
       height="6"
       x="0"
       y="0" />
    <pattern
       id="EMFhbasepattern-40"
       patternUnits="userSpaceOnUse"
       width="6"
       height="6"
       x="0"
       y="0" />
    <pattern
       id="EMFhbasepattern-08"
       patternUnits="userSpaceOnUse"
       width="6"
       height="6"
       x="0"
       y="0" />
    <pattern
       id="EMFhbasepattern-04"
       patternUnits="userSpaceOnUse"
       width="6"
       height="6"
       x="0"
       y="0" />
    <pattern
       id="EMFhbasepattern-014"
       patternUnits="userSpaceOnUse"
       width="6"
       height="6"
       x="0"
       y="0" />
    <pattern
       id="EMFhbasepattern-27"
       patternUnits="userSpaceOnUse"
       width="6"
       height="6"
       x="0"
       y="0" />
    <pattern
       id="EMFhbasepattern-09"
       patternUnits="userSpaceOnUse"
       width="6"
       height="6"
       x="0"
       y="0" />
    <pattern
       id="EMFhbasepattern-5"
       patternUnits="userSpaceOnUse"
       width="6"
       height="6"
       x="0"
       y="0" />
    <pattern
       id="EMFhbasepattern-018"
       patternUnits="userSpaceOnUse"
       width="6"
       height="6"
       x="0"
       y="0" />
  </defs>
  <sodipodi:namedview
     id="base"
     pagecolor="#ffffff"
     bordercolor="#666666"
     borderopacity="1.0"
     inkscape:pageopacity="0.0"
     inkscape:pageshadow="2"
     inkscape:zoom="4.6959227"
     inkscape:cx="42.590139"
     inkscape:cy="42.590139"
     inkscape:document-units="pt"
     inkscape:current-layer="layer1"
     showgrid="false"
     units="pt"
     inkscape:window-width="1366"
     inkscape:window-height="705"
     inkscape:window-x="0"
     inkscape:window-y="31"
     inkscape:window-maximized="1"
     inkscape:pagecheckerboard="true"
     inkscape:showpageshadow="false"
     inkscape:object-paths="true"
     inkscape:snap-intersection-paths="true"
     inkscape:snap-smooth-nodes="true"
     inkscape:snap-midpoints="true"
     showguides="true"
     inkscape:snap-bbox="true"
     inkscape:bbox-nodes="true"
     inkscape:snap-nodes="false"
     inkscape:snap-global="true"
     inkscape:document-rotation="0">
    <inkscape:grid
       type="xygrid"
       id="grid1378" />
    <sodipodi:guide
       position="0.97013831,21.607643"
       orientation="78.000048,0"
       id="guide1380"
       inkscape:locked="false" />
    <sodipodi:guide
       position="0.97013831,0.97013129"
       orientation="0,78.000005"
       id="guide1382"
       inkscape:locked="false" />
    <sodipodi:guide
       position="21.607639,0.97013129"
       orientation="-78.000048,0"
       id="guide1384"
       inkscape:locked="false" />
    <sodipodi:guide
       position="21.607639,21.607643"
       orientation="0,-78.000005"
       id="guide1386"
       inkscape:locked="false" />
  </sodipodi:namedview>
  <metadata
     id="metadata828">
    <rdf:RDF>
      <cc:Work
         rdf:about="">
        <dc:format>image/svg+xml</dc:format>
        <dc:type
           rdf:resource="http://purl.org/dc/dcmitype/StillImage" />
      </cc:Work>
    </rdf:RDF>
  </metadata>
  <g
     inkscape:label="Icon"
     inkscape:groupmode="layer"
     id="layer1"
     transform="translate(0,-274.42223)">
    <g
       id="g922995"
       style="display:inline;stroke-width:0.794862"
       transform="matrix(1.2580798,0,0,1.2580798,-114.48714,-38.911818)"
       inkscape:export-filename="/media/taufikramadhan/Data/Tr Design Studio/Project Design/TR Creative Design/Icon Design/Project Hiring/Icon Icons/013 - Drinks And Restaurants/Send/3 - Flat/06 - Green Tea.png"
       inkscape:export-xdpi="576"
       inkscape:export-ydpi="576">
      <path
         style="color:#000000;fill:#e2f0fa;stroke-width:0.794862;stroke-linecap:round;stroke-linejoin:round;-inkscape-stroke:none"
         d="m 103.70313,254.85742 a 0.26460996,0.26460996 0 0 0 -0.28711,0.25 l -0.0508,1.12695 a 0.26460996,0.26460996 0 0 0 0.27344,0.27735 c 0,0 0.42472,-0.0117 0.83594,0.16797 0.41122,0.17961 0.79102,0.49141 0.79102,1.29687 0,0.40075 -0.0464,0.80977 -0.36133,1.19922 -0.31497,0.38945 -0.92748,0.78072 -2.12891,1.04492 a 0.26460996,0.26460996 0 0 0 -0.19531,0.17969 l -0.41016,1.32031 a 0.26460996,0.26460996 0 0 0 0.33008,0.33008 c 1.82387,-0.56231 3.03485,-0.98361 3.7207,-1.94922 0.4462,-0.6282 0.63282,-1.45207 0.63282,-2.59961 0,-0.5898 -0.2082,-1.07418 -0.51563,-1.4375 -0.30743,-0.36332 -0.70575,-0.6127 -1.09375,-0.78906 -0.776,-0.35272 -1.54102,-0.41797 -1.54101,-0.41797 z"
         id="path843812" />
      <path
         id="path848573"
         style="color:#000000;fill:#a3b9c9;fill-opacity:1;stroke-width:0.794862;stroke-linecap:round;stroke-linejoin:round;-inkscape-stroke:none"
         d="m 103.70323,254.85735 a 0.26460996,0.26460996 0 0 0 -0.28732,0.25011 l -0.0506,1.12706 a 0.26460996,0.26460996 0 0 0 0.27337,0.27699 c 0,0 0.36649,-0.009 0.74827,0.13332 0.0555,-0.53138 0.0858,-1.04461 0.0858,-1.52548 a 0.26460996,0.26460996 0 0 0 -0.031,-0.12403 c -0.4269,-0.1108 -0.73846,-0.13797 -0.73846,-0.13797 z m 0.0847,5.06274 c -0.27979,0.11107 -0.6138,0.213 -1.01285,0.30075 a 0.26460996,0.26460996 0 0 0 -0.19482,0.17932 l -0.41032,1.32033 a 0.26460996,0.26460996 0 0 0 0.33022,0.33021 c 0.25392,-0.0783 0.49461,-0.15374 0.72502,-0.2284 0.20669,-0.60687 0.39667,-1.2485 0.56275,-1.90221 z" />
      <path
         style="color:#000000;fill:#3a4d5c;stroke-width:0.794862;stroke-linecap:round;stroke-linejoin:round;-inkscape-stroke:none"
         d="m 96.138672,263.48047 a 0.26460996,0.26460996 0 0 0 -0.03125,0.002 c -0.843362,0.10451 -1.551729,0.25488 -2.070313,0.44336 -0.259291,0.0942 -0.472883,0.1958 -0.638672,0.32422 -0.165788,0.12842 -0.302729,0.30533 -0.302734,0.52734 -2e-6,0.16561 0.08049,0.31186 0.185547,0.42188 0.105059,0.11001 0.238572,0.19734 0.396484,0.27734 0.315825,0.16001 0.737685,0.29173 1.253907,0.40235 1.032442,0.22123 2.434736,0.35351 3.984375,0.35351 1.549634,0 2.951934,-0.13228 3.984374,-0.35351 0.51622,-0.11062 0.94003,-0.24234 1.25586,-0.40235 0.15791,-0.08 0.28947,-0.16733 0.39453,-0.27734 0.10506,-0.11002 0.1875,-0.25627 0.1875,-0.42188 0,-0.22201 -0.1389,-0.39892 -0.30469,-0.52734 -0.16579,-0.12842 -0.37742,-0.22998 -0.63671,-0.32422 -0.51859,-0.18848 -1.22696,-0.33885 -2.07032,-0.44336 a 0.26460996,0.26460996 0 0 0 -0.0332,-0.002 z"
         id="path843788" />
      <path
         id="path887798"
         style="color:#000000;fill:#143441;fill-opacity:1;stroke-width:0.794862;stroke-linecap:round;stroke-linejoin:round;-inkscape-stroke:none"
         d="m 96.138838,263.48059 a 0.26460996,0.26460996 0 0 0 -0.03153,0.002 c -0.542951,0.0673 -1.029475,0.1536 -1.445905,0.25683 v 0.53485 c 0,0.12107 0.0586,0.22811 0.135392,0.30851 0.07681,0.0804 0.174464,0.14459 0.289904,0.20309 0.230886,0.11697 0.539356,0.21313 0.916742,0.29403 0.754769,0.16174 1.78013,0.25839 2.912999,0.25839 1.13288,0 2.15773,-0.0966 2.91249,-0.25839 0.37739,-0.0809 0.68741,-0.17706 0.91829,-0.29403 0.11544,-0.0585 0.21155,-0.12269 0.28835,-0.20309 0.0768,-0.0804 0.12806,-0.18777 0.13695,-0.30851 v -0.53485 c -0.41644,-0.10323 -0.90296,-0.18955 -1.44591,-0.25683 a 0.26460996,0.26460996 0 0 0 -0.0331,-0.002 z" />
      <path
         style="color:#000000;fill:#e2f0fa;stroke-width:0.794862;stroke-linecap:round;stroke-linejoin:round;-inkscape-stroke:none"
         d="m 98.933594,254.21875 c -1.717328,0.003 -3.439205,0.2231 -4.855469,0.64844 a 0.26460996,0.26460996 0 0 0 -0.1875,0.25195 c 0,2.77658 0.996996,6.62187 2.158203,8.91602 0.193335,0.38196 0.599701,0.60937 1.015625,0.60937 h 3.705077 c 0.41593,0 0.82229,-0.22741 1.01563,-0.60937 1.1612,-2.29415 2.1582,-6.13944 2.1582,-8.91602 a 0.26460996,0.26460996 0 0 0 -0.18359,-0.25195 c -1.39499,-0.43925 -3.10885,-0.65166 -4.826176,-0.64844 z"
         id="path843794" />
      <path
         id="path842108"
         style="fill:#badb94;fill-opacity:1;stroke:none;stroke-width:0.420615;stroke-linecap:round;stroke-linejoin:round;stroke-opacity:1;stop-color:#000000"
         d="m 93.937939,256.23039 c 0.210317,2.62277 1.098103,5.80359 2.110981,7.80469 0.193336,0.38196 0.599519,0.60927 1.015441,0.60927 h 3.705199 c 0.41593,0 0.8221,-0.22731 1.01544,-0.60927 1.01288,-2.0011 1.90067,-5.18192 2.11099,-7.80469 z" />
      <path
         id="path885213"
         style="fill:#9ccc65;fill-opacity:1;stroke-width:0.794862;stroke-linecap:round;stroke-linejoin:round"
         d="m 98.375393,257.99359 c -0.112826,-0.002 -0.225562,0.0185 -0.330213,0.061 0,0 -0.0019,0.002 -0.0021,0.002 -0.0034,10e-4 -0.912524,0.44177 -1.752348,1.23662 -0.920459,-0.70098 -1.868694,-1.04115 -1.876889,-1.04335 -0.06833,-0.0198 -0.138742,-0.0292 -0.209288,-0.0295 0.383916,2.11179 1.078088,4.3008 1.844331,5.81464 0.193337,0.38196 0.59952,0.60926 1.015442,0.60926 h 1.917198 c 0.658905,-0.37591 1.124604,-0.89466 1.409214,-1.41955 0.54857,-1.01167 0.52569,-2.01541 0.52555,-2.02158 -0.004,-0.3986 -0.33503,-0.76802 -0.7307,-0.81649 0,0 -0.34029,10e-4 -0.535372,-0.008 -0.143505,-1.11833 -0.575861,-1.97559 -0.577742,-1.97869 -0.134215,-0.22685 -0.382312,-0.38154 -0.644922,-0.40411 a 0.56708904,0.56708904 0 0 0 -0.0036,0 c -0.01609,-10e-4 -0.03246,-0.002 -0.04857,-0.003 z" />
      <path
         style="color:#000000;fill:#c8dae5;stroke-width:0.794862;stroke-linecap:round;stroke-linejoin:round;-inkscape-stroke:none"
         d="m 96.892578,251.15039 a 0.2645835,0.2645835 0 0 0 -0.1875,0.0781 0.2645835,0.2645835 0 0 0 0,0.375 c 0,0 0.02675,0.0192 0.07813,0.13476 0.05137,0.1156 0.109375,0.30807 0.109375,0.60352 0,0.29545 -0.058,0.48792 -0.109375,0.60351 -0.05138,0.1156 -0.07813,0.13477 -0.07813,0.13477 a 0.2645835,0.2645835 0 0 0 0,0.375 0.2645835,0.2645835 0 0 0 0.375,0 c 0,0 0.106584,-0.11286 0.1875,-0.29492 0.08092,-0.18207 0.154297,-0.45236 0.154297,-0.81836 0,-0.36601 -0.07338,-0.6363 -0.154297,-0.81836 -0.08092,-0.18206 -0.1875,-0.29492 -0.1875,-0.29492 a 0.2645835,0.2645835 0 0 0 -0.1875,-0.0781 z"
         id="path35964" />
      <path
         style="color:#000000;fill:#c8dae5;stroke-width:0.794862;stroke-linecap:round;stroke-linejoin:round;-inkscape-stroke:none"
         d="m 98.3125,249.88867 c 0,0 -0.113901,0.0987 -0.199219,0.26172 -0.08532,0.16299 -0.162109,0.40754 -0.162109,0.73633 0,0.32877 0.08352,0.54997 0.148437,0.72265 0.06491,0.17269 0.117188,0.30417 0.117188,0.59961 0,0.59091 -0.220703,0.91211 -0.220703,0.91211 a 0.2645835,0.2645835 0 0 0 0.07227,0.36719 0.2645835,0.2645835 0 0 0 0.367188,-0.0742 c 0,0 0.308594,-0.47306 0.308594,-1.20508 0,-0.366 -0.08106,-0.60591 -0.148438,-0.78515 -0.06738,-0.17925 -0.115234,-0.28928 -0.115234,-0.53711 0,-0.24785 0.05459,-0.4005 0.101562,-0.49024 0.04697,-0.0897 0.06641,-0.0996 0.06641,-0.0996 a 0.2645835,0.2645835 0 0 0 0.03711,-0.37109 0.2645835,0.2645835 0 0 0 -0.373047,-0.0371 z"
         id="path38809" />
      <path
         style="color:#000000;fill:#c8dae5;stroke-width:0.794862;stroke-linecap:round;stroke-linejoin:round;-inkscape-stroke:none"
         d="m 100.08594,250.41602 c -0.414812,0 -0.812502,0.33887 -0.812503,0.81835 10e-7,0.41423 0.337496,0.75977 0.751953,0.75977 a 0.2645835,0.2645835 0 0 0 0.26563,-0.26367 0.2645835,0.2645835 0 0 0 -0.26563,-0.26563 c -0.123737,0 -0.222656,-0.0975 -0.222656,-0.23047 0,-0.18465 0.159826,-0.28906 0.283206,-0.28906 0.21363,0 0.33189,0.059 0.42578,0.17578 0.0939,0.11682 0.16406,0.32237 0.16406,0.63282 0,0.73048 -0.45117,1.35546 -0.45117,1.35546 a 0.2645835,0.2645835 0 0 0 0.0527,0.3711 0.2645835,0.2645835 0 0 0 0.3711,-0.0547 c 0,0 0.55664,-0.72866 0.55664,-1.67187 0,-0.38811 -0.0844,-0.71996 -0.28125,-0.96485 -0.19683,-0.24489 -0.50378,-0.37304 -0.83789,-0.37304 z"
         id="path41618" />
      <path
         style="color:#000000;fill:#349951;stroke-width:0.794862;stroke-linecap:round;stroke-linejoin:round;-inkscape-stroke:none"
         d="m 94.255859,258.79492 a 0.26460996,0.26460996 0 0 0 -0.314453,0.14453 c 0,0 -0.446239,0.96996 -0.351562,2.16992 0.09468,1.19997 0.772252,2.64859 2.873047,3.51368 a 0.26460996,0.26460996 0 0 0 0.363281,-0.26172 l -0.259766,-4.03321 a 0.26460996,0.26460996 0 0 0 -0.07031,-0.16406 c -0.932418,-1.00494 -2.240235,-1.36914 -2.240235,-1.36914 z"
         id="path843818" />
      <path
         style="color:#000000;fill:#26783f;stroke-width:0.794862;stroke-linecap:round;stroke-linejoin:round;-inkscape-stroke:none"
         d="m 95.175781,260.4707 a 0.2645835,0.2645835 0 0 0 -0.201172,0.008 0.2645835,0.2645835 0 0 0 -0.128906,0.35351 c 0.254497,0.54388 0.481941,1.01831 0.689453,1.49219 a 0.2645835,0.2645835 0 0 0 0.347656,0.13672 0.2645835,0.2645835 0 0 0 0.136719,-0.34961 c -0.212159,-0.4845 -0.439864,-0.96217 -0.693359,-1.50391 a 0.2645835,0.2645835 0 0 0 -0.150391,-0.13672 z"
         id="path52442" />
      <path
         style="color:#000000;fill:#349951;stroke-width:0.794862;stroke-linecap:round;stroke-linejoin:round;-inkscape-stroke:none"
         d="m 100.11719,260.94922 c 0,0 -0.60487,-0.0741 -1.263674,0.0215 a 0.26460996,0.26460996 0 0 0 -0.173829,0.10547 l -2.330078,3.14453 a 0.26460996,0.26460996 0 0 0 0.207032,0.42188 c 1.861809,0.0461 2.864061,-0.81725 3.335937,-1.6875 0.471872,-0.87025 0.457032,-1.7461 0.457032,-1.7461 a 0.26460996,0.26460996 0 0 0 -0.23242,-0.25976 z"
         id="path843828" />
      <path
         style="color:#000000;fill:#50b86b;stroke-width:0.794862;stroke-linecap:round;stroke-linejoin:round;-inkscape-stroke:none"
         d="m 98.255859,258.58008 c 0,0 -1.12693,0.4519 -1.941406,1.42773 -0.407238,0.48792 -0.741892,1.11659 -0.796875,1.88086 -0.05498,0.76427 0.171247,1.65017 0.824219,2.63672 a 0.26460996,0.26460996 0 0 0 0.347656,0.0859 c 1.995536,-1.08607 2.513484,-2.59955 2.478516,-3.80274 -0.03497,-1.20318 -0.583985,-2.11914 -0.583985,-2.11914 a 0.26460996,0.26460996 0 0 0 -0.328125,-0.10937 z"
         id="path843834" />
      <path
         id="path50220"
         style="color:#000000;fill:#26783f;stroke-width:0.794862;stroke-linecap:round;stroke-linejoin:round;-inkscape-stroke:none"
         d="m 97.644688,260.31799 c -0.112623,-0.003 -0.219221,0.0662 -0.257866,0.17829 -0.439491,1.28367 -0.840285,2.50626 -1.106392,3.93412 0.02011,0.0315 0.04052,0.0634 0.0615,0.0951 a 0.26460996,0.26460996 0 0 0 0.347784,0.0858 c 0.03617,-0.0197 0.07125,-0.0395 0.106452,-0.0594 0.258591,-1.39919 0.648423,-2.5871 1.092441,-3.884 0.04715,-0.13863 -0.02712,-0.28914 -0.165883,-0.33589 -0.02588,-0.009 -0.05204,-0.0132 -0.07803,-0.014 z" />
      <path
         style="color:#000000;fill:#badb94;stroke-width:0.794862;stroke-linecap:round;stroke-linejoin:round;-inkscape-stroke:none"
         d="m 98.916016,255.30078 c -1.311751,0 -2.497707,0.0744 -3.369141,0.19727 -0.435725,0.0614 -0.790676,0.134 -1.056641,0.22265 -0.132982,0.0443 -0.244378,0.0911 -0.341797,0.15821 -0.09742,0.0671 -0.208965,0.17891 -0.208984,0.35156 -5e-6,0.17266 0.111567,0.28444 0.208984,0.35156 0.09742,0.0671 0.208816,0.11388 0.341797,0.1582 0.265963,0.0887 0.620916,0.16123 1.056641,0.22266 0.87145,0.12287 2.057382,0.19727 3.369141,0.19727 1.311754,0 2.499644,-0.0744 3.371094,-0.19727 0.43572,-0.0614 0.79068,-0.134 1.05664,-0.22266 0.13298,-0.0443 0.24438,-0.0911 0.3418,-0.1582 0.0974,-0.0671 0.20899,-0.1789 0.20898,-0.35156 -2e-5,-0.17265 -0.11156,-0.28445 -0.20898,-0.35156 -0.0974,-0.0671 -0.20882,-0.11388 -0.3418,-0.15821 -0.26597,-0.0887 -0.62092,-0.16122 -1.05664,-0.22265 -0.87144,-0.12285 -2.05934,-0.19727 -3.371094,-0.19727 z"
         id="path843844" />
      <path
         id="path859959"
         style="color:#000000;fill:#9ccc65;fill-opacity:1;stroke-width:0.794862;stroke-linecap:round;stroke-linejoin:round;-inkscape-stroke:none"
         d="m 103.23039,254.71519 c 0.10965,0.0351 0.18404,0.28895 0.18397,0.40408 0,2.77658 -0.99732,6.62159 -2.15852,8.91574 -0.19334,0.38196 -0.59951,0.60926 -1.01544,0.60926 h 0.52916 c 0.41593,0 0.8221,-0.2273 1.01544,-0.60926 1.16121,-2.29415 2.15853,-6.13916 2.15853,-8.91574 7e-5,-0.11513 -0.0743,-0.21709 -0.18397,-0.25218 z"
         sodipodi:nodetypes="ccscscccc" />
      <path
         id="path875296"
         style="color:#000000;fill:#c8dae5;fill-opacity:1;stroke-width:0.794862;stroke-linecap:round;stroke-linejoin:round;-inkscape-stroke:none"
         d="m 103.75855,254.86714 -0.51522,-0.1478 c -0.004,-10e-4 -0.008,-0.002 -0.0119,-0.003 l 5.3e-4,3e-5 c 0.10871,0.0372 0.18249,0.28854 0.18242,0.40308 0,0.20121 -0.006,0.40919 -0.0165,0.62063 0.1091,0.039 0.2042,0.0814 0.28784,0.13901 0.0965,0.0665 0.20673,0.1768 0.20877,0.34675 0.008,-0.10003 0.0173,-0.2014 0.0233,-0.29973 0.0112,-0.18462 0.0189,-0.36608 0.0227,-0.54363 0.002,-0.0888 0.003,-0.17627 0.003,-0.26303 5.3e-4,-0.11788 -0.0652,-0.22012 -0.18497,-0.25221 z"
         sodipodi:nodetypes="ccccccscsccc" />
      <path
         id="path895128"
         style="color:#000000;fill:#9ccc65;fill-opacity:1;stroke-width:0.794862;stroke-linecap:round;stroke-linejoin:round;-inkscape-stroke:none"
         d="m 103.68566,255.87899 c -0.0974,-0.0671 -0.20911,-0.1138 -0.3421,-0.15813 -0.26597,-0.0887 -0.62054,-0.1613 -1.05626,-0.22273 -0.87144,-0.12285 -2.05962,-0.1974 -3.371371,-0.1974 -1.311751,0 -2.497871,0.0745 -3.369305,0.1974 -0.435724,0.0614 -0.7903,0.13408 -1.056264,0.22273 -0.132982,0.0443 -0.244679,0.091 -0.342099,0.15813 -0.09742,0.0671 -0.208753,0.17875 -0.208772,0.3514 l 0.02177,0.26458 c 0.03189,-0.0346 0.153291,-0.0636 0.187004,-0.0868 0.09742,-0.0671 0.209117,-0.11383 0.342099,-0.15813 0.265964,-0.0886 0.62054,-0.16133 1.056264,-0.22273 0.871434,-0.12287 2.057554,-0.1974 3.369305,-0.1974 1.311749,0 2.499929,0.0745 3.371369,0.1974 0.43572,0.0614 0.79029,0.13403 1.05626,0.22273 0.13299,0.0443 0.2447,0.091 0.3421,0.15813 z"
         sodipodi:nodetypes="ccssccccccscscccc" />
    </g>
  </g>
</svg>
